<?xml version="1.0" standalone="no"?>
<!DOCTYPE svg PUBLIC "-//W3C//DTD SVG 20010904//EN"
 "http://www.w3.org/TR/2001/REC-SVG-20010904/DTD/svg10.dtd">
<svg version="1.0" xmlns="http://www.w3.org/2000/svg"
 width="668.000000pt" height="668.000000pt" viewBox="0 0 668.000000 668.000000"
 preserveAspectRatio="xMidYMid meet">
<metadata>
Created by potrace 1.14, written by Peter Selinger 2001-2017
</metadata>
<g transform="translate(0.000000,668.000000) scale(0.100000,-0.100000)"
fill="#000000" stroke="none">
<path d="M1218 6362 c-157 -166 -604 -611 -613 -612 -14 0 -35 -49 -24 -55 11
-7 7 -3182 -5 -3212 -7 -19 -4 -24 18 -33 17 -6 26 -16 24 -27 -3 -17 28 -40
248 -178 52 -33 149 -95 215 -137 66 -43 124 -78 129 -78 6 0 10 -4 10 -10 0
-5 4 -10 9 -10 12 0 115 -63 119 -72 2 -5 10 -8 17 -8 7 0 15 -4 17 -8 2 -5
30 -23 63 -42 33 -18 62 -36 65 -40 7 -8 122 -64 135 -65 23 -2 24 8 5 46 -19
36 -19 41 -5 55 8 8 24 16 35 17 20 1 20 9 20 1091 0 862 2 1093 12 1102 7 6
28 16 45 22 37 12 52 3 154 -100 31 -32 61 -58 68 -58 6 0 11 -3 11 -7 0 -13
147 -173 173 -190 7 -5 17 -17 23 -27 6 -11 19 -24 30 -30 10 -6 25 -20 33
-31 8 -11 122 -128 254 -259 166 -167 241 -236 247 -227 11 19 49 4 55 -22 3
-12 4 -233 3 -492 l-3 -470 -396 -3 -397 -2 -5 -23 c-8 -29 -8 -853 -1 -872 5
-13 8 -13 21 0 12 13 17 13 28 1 8 -7 11 -22 9 -33 -4 -15 6 -30 43 -59 26
-22 50 -42 51 -46 2 -5 10 -8 18 -8 8 0 14 -4 14 -8 0 -19 60 -35 145 -38 50
-1 172 -5 273 -9 l182 -7 0 -269 c0 -208 3 -269 13 -270 6 -1 22 -2 34 -3 13
0 36 -13 52 -28 16 -16 35 -28 42 -28 7 0 10 -3 6 -6 -3 -3 28 -41 70 -83 42
-42 110 -111 150 -154 64 -68 72 -81 61 -95 -10 -14 -10 -15 2 -5 11 10 21 6
52 -22 21 -19 43 -35 48 -35 6 0 45 37 88 82 42 45 100 105 127 133 28 28 98
101 158 162 103 106 107 111 100 144 -6 30 -5 33 9 21 11 -9 18 -10 23 -3 3 6
5 119 3 251 -1 131 1 243 5 247 18 17 83 11 72 -7 -10 -17 45 -23 144 -16 53
3 153 6 222 6 l126 0 59 40 c32 22 77 55 99 74 33 28 38 36 27 49 -17 20 3 34
24 16 8 -6 17 -9 21 -6 7 8 15 854 8 884 l-5 23 -398 2 -397 3 -3 528 c-2 431
0 530 11 541 18 19 47 2 47 -28 0 -13 7 -29 16 -37 14 -11 72 44 462 437 246
248 454 456 463 462 13 10 26 8 63 -7 25 -11 46 -24 47 -28 1 -4 3 -485 4
-1068 2 -583 4 -1064 4 -1069 1 -4 7 -6 15 -3 29 11 53 -83 26 -103 -4 -3 -10
-15 -14 -27 -6 -18 -3 -23 10 -23 24 0 125 53 219 115 44 29 96 61 115 71 19
10 37 22 40 25 3 3 16 12 30 19 14 7 88 54 165 105 77 50 195 127 263 171 68
43 141 91 163 107 39 27 39 28 23 53 -21 32 -7 52 25 35 18 -10 21 -9 21 6 0
10 2 466 3 1013 2 548 7 1001 11 1008 4 7 3 12 -2 12 -8 0 -14 545 -12 1108 0
36 -4 45 -20 49 -26 7 -26 19 1 26 l21 6 -22 31 c-12 17 -97 108 -189 202
-353 362 -492 498 -509 498 -12 0 -90 -75 -303 -295 -106 -110 -337 -347 -514
-526 -416 -423 -633 -645 -945 -968 l-254 -263 -109 114 c-365 380 -566 587
-922 951 -220 224 -524 536 -675 694 -152 157 -285 290 -297 294 -18 7 -33 -4
-95 -69z"/>
<path d="M1479 1563 c-13 -16 -12 -17 4 -4 9 7 17 15 17 17 0 8 -8 3 -21 -13z"/>
<path d="M3990 849 c0 -5 5 -7 10 -4 6 3 10 8 10 11 0 2 -4 4 -10 4 -5 0 -10
-5 -10 -11z"/>
</g>
</svg>
