<svg xmlns="http://www.w3.org/2000/svg" width="100" height="100" viewBox="0 0 48 48"><circle cx="24" cy="24" r="20" fill="#616161"/><path fill="#d1d1d1" d="m34.139 17.887-.955.265a.498.498 0 0 1-.539-.77l.576-.807a.244.244 0 0 0-.298-.355l-.838.4a.52.52 0 0 1-.694-.694l.4-.838a.244.244 0 0 0-.355-.298l-.807.576a.498.498 0 0 1-.77-.539l.265-.955a.244.244 0 0 0-.401-.232l-.695.707a.499.499 0 0 1-.852-.397l.095-.987a.245.245 0 0 0-.436-.159l-.562.817a.499.499 0 0 1-.908-.243l-.078-.988a.244.244 0 0 0-.456-.08l-.411.902a.499.499 0 0 1-.937-.082l-.248-.96a.244.244 0 0 0-.463 0l-.248.96a.499.499 0 0 1-.937.082l-.411-.902c-.112-.206-.422-.152-.456.08l-.078.988a.498.498 0 0 1-.908.243l-.562-.817a.245.245 0 0 0-.436.158l.095.987a.498.498 0 0 1-.852.397l-.695-.707a.244.244 0 0 0-.401.232l.265.955a.498.498 0 0 1-.77.539l-.807-.576a.244.244 0 0 0-.355.298l.427.895a.499.499 0 0 1-.665.665l-.895-.427a.244.244 0 0 0-.298.355l.576.807a.498.498 0 0 1-.539.77l-.955-.265a.244.244 0 0 0-.232.401l.707.695a.499.499 0 0 1-.397.852l-.987-.095a.244.244 0 0 0-.159.435l.817.562a.499.499 0 0 1-.243.908l-.988.078a.244.244 0 0 0-.08.456l.902.411a.499.499 0 0 1-.082.937l-.96.248a.244.244 0 0 0 0 .463l.96.248c.455.118.51.742.082.937l-.902.411c-.206.112-.152.422.08.456l.988.078a.498.498 0 0 1 .243.908l-.817.562a.245.245 0 0 0 .158.436l.987-.095a.498.498 0 0 1 .397.852l-.707.695a.244.244 0 0 0 .232.401l.955-.265a.498.498 0 0 1 .539.77l-.576.807c-.123.2.08.441.298.355l.895-.427a.499.499 0 0 1 .665.665l-.427.895a.244.244 0 0 0 .355.298l.807-.576a.498.498 0 0 1 .77.539l-.265.956a.244.244 0 0 0 .401.232l.695-.707a.499.499 0 0 1 .852.397l-.095.987a.245.245 0 0 0 .436.159l.562-.817a.499.499 0 0 1 .908.243l.078.988a.244.244 0 0 0 .456.08l.411-.902a.499.499 0 0 1 .937.082l.248.96a.244.244 0 0 0 .463 0l.248-.96a.499.499 0 0 1 .937-.082l.411.902c.112.206.422.152.456-.08l.078-.988a.498.498 0 0 1 .908-.243l.562.817a.245.245 0 0 0 .436-.158l-.095-.987a.498.498 0 0 1 .852-.397l.695.707a.244.244 0 0 0 .401-.232l-.265-.956a.498.498 0 0 1 .77-.539l.807.576c.2.123.441-.08.355-.298l-.427-.895a.499.499 0 0 1 .665-.665l.895.427a.244.244 0 0 0 .298-.355l-.576-.807a.498.498 0 0 1 .539-.77l.955.265a.244.244 0 0 0 .232-.401l-.707-.695a.499.499 0 0 1 .397-.852l.987.095a.245.245 0 0 0 .159-.436l-.817-.562a.499.499 0 0 1 .243-.908l.988-.078a.244.244 0 0 0 .08-.456l-.902-.411a.499.499 0 0 1 .082-.937l.96-.248a.244.244 0 0 0 0-.463l-.96-.248a.499.499 0 0 1-.082-.937l.902-.411c.206-.112.152-.422-.08-.456l-1.054-.083a.476.476 0 0 1-.232-.866l.871-.599a.245.245 0 0 0-.158-.436l-.987.095a.498.498 0 0 1-.397-.852l.707-.695c.156-.175-.002-.448-.232-.401zm-10.643 5.248a1.002 1.002 0 1 1 1.003 1.736 1.002 1.002 0 0 1-1.003-1.736zm-6.019 7.556a9.197 9.197 0 0 1-1.572-2.015c-2.181-3.778-1.418-8.441 1.57-11.352.616-.6 1.642-.438 2.073.307l3.022 5.234a2.276 2.276 0 0 1 0 2.277l-3.024 5.237c-.43.744-1.452.909-2.069.312zm15.57-4.363a9.315 9.315 0 0 1-4.378 5.768 9.311 9.311 0 0 1-7.184.907c-.835-.233-1.218-1.204-.785-1.955l2.797-4.845a3.064 3.064 0 0 1 2.653-1.532h5.595c.868 0 1.518.817 1.302 1.657zm.002-4.627c.209.833-.445 1.635-1.304 1.635h-6.047a2.276 2.276 0 0 1-1.972-1.139l-3.022-5.234c-.43-.745-.058-1.715.77-1.949 4.015-1.132 8.435.538 10.616 4.317.439.761.755 1.558.959 2.37z"/><path fill="#bdbdbd" d="m39.191 14.837-1.431.397c-.679.188-1.217-.581-.808-1.154l.863-1.209a.366.366 0 0 0-.446-.532l-1.256.599c-.664.317-1.357-.377-1.04-1.041l.599-1.256a.366.366 0 0 0-.532-.446l-1.21.863c-.573.409-1.342-.13-1.154-.808l.397-1.432a.366.366 0 0 0-.601-.347l-1.041 1.06c-.494.502-1.344.106-1.277-.595l.142-1.479a.366.366 0 0 0-.653-.237L28.9 8.442c-.399.58-1.306.337-1.361-.365l-.117-1.481a.366.366 0 0 0-.684-.121l-.616 1.352c-.292.641-1.227.559-1.403-.123l-.372-1.438a.366.366 0 0 0-.694 0l-.372 1.438c-.176.682-1.111.764-1.403.123l-.616-1.352a.366.366 0 0 0-.684.121l-.117 1.481c-.056.703-.962.946-1.361.365l-.841-1.224a.366.366 0 0 0-.653.237l.142 1.479c.067.701-.783 1.098-1.277.595L15.43 8.47a.366.366 0 0 0-.601.347l.397 1.432c.188.678-.581 1.217-1.154.808l-1.209-.863a.366.366 0 0 0-.532.446l.639 1.341c.303.636-.361 1.299-.996.996l-1.341-.639a.366.366 0 0 0-.446.532l.863 1.21c.409.573-.13 1.342-.808 1.154l-1.432-.397a.366.366 0 0 0-.347.601l1.059 1.041c.502.494.106 1.344-.595 1.277l-1.479-.142a.366.366 0 0 0-.238.652l1.224.841c.58.399.337 1.306-.365 1.361l-1.481.117a.366.366 0 0 0-.121.684l1.352.616c.641.292.559 1.227-.123 1.403l-1.438.372a.366.366 0 0 0 0 .694l1.438.372c.682.176.764 1.111.123 1.403l-1.352.616a.366.366 0 0 0 .121.684l1.481.117c.702.055.945.962.365 1.361l-1.224.843a.366.366 0 0 0 .237.653l1.479-.142c.701-.067 1.098.783.595 1.277l-1.059 1.041a.366.366 0 0 0 .347.601l1.431-.397c.679-.188 1.217.581.808 1.154l-.863 1.209c-.184.3.119.661.446.532l1.341-.639c.636-.303 1.299.361.996.996l-.639 1.341a.366.366 0 0 0 .532.446l1.209-.863c.573-.409 1.342.13 1.154.808l-.397 1.432a.366.366 0 0 0 .601.347l1.041-1.06c.494-.502 1.344-.106 1.277.595l-.142 1.479a.366.366 0 0 0 .653.237l.841-1.224c.399-.58 1.306-.337 1.361.365l.117 1.481c.052.348.516.43.684.121l.616-1.352c.292-.641 1.227-.559 1.403.123l.372 1.438a.366.366 0 0 0 .694 0l.372-1.438c.176-.682 1.111-.763 1.403-.123l.616 1.352a.366.366 0 0 0 .684-.121l.117-1.481c.055-.702.962-.945 1.361-.365l.842 1.224a.366.366 0 0 0 .653-.237l-.142-1.479c-.067-.701.783-1.098 1.277-.595l1.041 1.06a.366.366 0 0 0 .601-.347l-.397-1.432c-.188-.678.581-1.217 1.154-.808l1.21.863c.3.184.661-.119.532-.446l-.639-1.341c-.303-.636.361-1.299.996-.996l1.341.639a.366.366 0 0 0 .446-.532l-.863-1.21c-.409-.573.13-1.342.808-1.154l1.432.397a.366.366 0 0 0 .347-.601l-1.06-1.041c-.502-.494-.105-1.344.595-1.277l1.479.142a.366.366 0 0 0 .237-.653l-1.224-.842c-.58-.399-.337-1.306.365-1.361l1.481-.117a.366.366 0 0 0 .121-.684l-1.352-.616c-.641-.292-.559-1.227.123-1.403l1.438-.372a.366.366 0 0 0 0-.694l-1.438-.372c-.682-.176-.764-1.111-.123-1.403l1.352-.616a.366.366 0 0 0-.121-.684l-1.579-.124c-.669-.053-.901-.917-.348-1.297l1.306-.897a.366.366 0 0 0-.237-.653l-1.479.142c-.701.067-1.098-.783-.595-1.277l1.06-1.041a.366.366 0 0 0-.347-.601zm-15.695 8.298a1 1 0 1 1 1 1.733 1 1 0 0 1-1-1.733zM14.227 34.02a13.81 13.81 0 0 1-2.356-3.019c-3.268-5.661-2.125-12.647 2.352-17.009.924-.9 2.461-.656 3.105.461l4.528 7.842a3.41 3.41 0 0 1 0 3.412l-4.53 7.847c-.643 1.114-2.175 1.361-3.099.466zm23.328-6.536c-.903 3.517-3.165 6.683-6.559 8.642s-7.266 2.336-10.763 1.359c-1.251-.349-1.825-1.804-1.176-2.929l4.191-7.259a4.59 4.59 0 0 1 3.975-2.295h8.383c1.299-.001 2.272 1.223 1.949 2.482zm.002-6.933c.313 1.247-.667 2.45-1.953 2.45h-9.06a3.41 3.41 0 0 1-2.955-1.706l-4.528-7.842c-.645-1.117-.087-2.57 1.154-2.919 6.016-1.697 12.637.806 15.906 6.468a13.82 13.82 0 0 1 1.436 3.549z"/></svg>